<?xml version="1.0" encoding="utf-8"?>
<!-- Generator: Adobe Illustrator 24.1.2, SVG Export Plug-In . SVG Version: 6.00 Build 0)  -->
<svg version="1.1" id="Слой_1" xmlns="http://www.w3.org/2000/svg" xmlns:xlink="http://www.w3.org/1999/xlink" x="0px" y="0px"
	 viewBox="0 0 595.3 595.3" style="enable-background:new 0 0 595.3 595.3;" xml:space="preserve">
<style type="text/css">
	.st0{fill:#000000;}
</style>
<g>
	<path class="st0" d="M297.6,0C133.3,0,0,133.3,0,297.6C0,462,133.3,595.3,297.6,595.3S595.3,462,595.3,297.6
		C595.3,133.3,462,0,297.6,0z M473.6,473.6c-47,47-109.5,72.9-175.9,72.9s-128.9-25.9-175.9-72.9c-47-47-72.9-109.5-72.9-175.9
		s25.9-128.9,72.9-175.9c47-47,109.5-72.9,175.9-72.9s128.9,25.9,175.9,72.9c47,47,72.9,109.5,72.9,175.9S520.6,426.6,473.6,473.6z"
		/>
	<path class="st0" d="M479,283.7v4.7h-31.5l-68.8-44.5v30.5v14h-7.4v-14h-16.4v14H320L432.4,176l3.3,3.3l11.6-11.6L427.6,148
		L416,159.6l3.3,3.3L306.9,275.3v-20.5h14v-16.4h-14v-7.7c15.4-4.1,26.8-18.1,26.8-34.8s-11.4-30.7-26.8-34.8v-3.3
		c15.4-4.1,26.8-18.1,26.8-34.8v-14.8h-18.6v14.8c0,6.2-3.3,11.7-8.2,14.8v-21.4h4.7V99.9h-27.9v16.4h4.7v21.4
		c-4.9-3.1-8.2-8.6-8.2-14.8v-14.8h-18.6v14.8c0,16.7,11.4,30.7,26.8,34.8v3.3c-15.4,4.1-26.8,18.1-26.8,34.8s11.4,30.7,26.8,34.8
		v7.7h-14v16.4h14v21.4L175.7,163.5l3.9-3.9L168.1,148l-19.7,19.7l11.6,11.6l3.2-3.2l112.3,112.3h-57.5
		c-4.1-15.4-18.1-26.8-34.8-26.8c-16.7,0-30.7,11.4-34.8,26.8h-31.9v-4.7H99.9v27.9h16.4v-4.7h31.9c4.1,15.4,18.1,26.8,34.8,26.8
		c16.7,0,30.7-11.4,34.8-26.8h57.4L162.9,419.3l-3.3-3.3L148,427.6l19.7,19.7l11.6-11.6l-3.3-3.3L288.4,320v85.2
		c-1.6-0.7-3.4-1.2-5.5-1.2c-2.6,0-4.7,0.5-6.4,1.2c-2.9,1.2-6.2,1.2-9.2,0c-1.7-0.7-3.8-1.2-6.3-1.2h-7.8v16.3h4
		c2.3,0,4.5,0.7,6.4,1.9c2.1,1.3,5.2,2.9,8.3,2.9c1.9,0,3.9-0.6,5.5-1.4c3.3-1.5,7.1-1.5,10.4,0c0.2,0.1,0.3,0.1,0.5,0.2v4.9
		c-1.6-0.7-3.4-1.2-5.5-1.2c-2.6,0-4.7,0.5-6.4,1.2c-2.9,1.2-6.2,1.2-9.2,0c-1.7-0.7-3.8-1.2-6.3-1.2h-7.8v16.3h4
		c2.3,0,4.5,0.7,6.4,1.9c2.1,1.3,5.2,2.9,8.3,2.9c1.9,0,3.9-0.6,5.5-1.4c3.3-1.5,7.1-1.5,10.4,0c0.2,0.1,0.3,0.1,0.5,0.2V479h-4.7
		v16.4h27.9V479h-4.7v-31.5c1.6,0.7,3.4,1.2,5.5,1.2c2.6,0,4.7-0.5,6.4-1.2c2.9-1.2,6.2-1.2,9.2,0c1.7,0.7,3.8,1.2,6.3,1.2h7.8
		v-16.3h-4c-2.3,0-4.5-0.7-6.4-1.9c-2.1-1.3-5.2-2.9-8.3-2.9c-1.9,0-3.9,0.6-5.5,1.4c-3.3,1.5-7.1,1.5-10.4,0
		c-0.2-0.1-0.3-0.1-0.5-0.2v-4.9c1.6,0.7,3.4,1.2,5.5,1.2c2.6,0,4.7-0.5,6.4-1.2c2.9-1.2,6.2-1.2,9.2,0c1.7,0.7,3.8,1.2,6.3,1.2h7.8
		v-16.3h-4c-2.3,0-4.5-0.7-6.4-1.9c-2.1-1.3-5.2-2.9-8.3-2.9c-1.9,0-3.9,0.6-5.5,1.4c-3.3,1.5-7.1,1.5-10.4,0
		c-0.2-0.1-0.3-0.1-0.5-0.2v-85.3L420,433l-3.2,3.2l11.1,11.1l19-19l-11.1-11.1l-3.2,3.2L319.1,306.9h35.7v14h16.4v-14h7.4v14v30.5
		l68.8-44.5H479v4.7h16.4v-27.9H479z M315.1,195.9c0,6.2-3.3,11.7-8.2,14.8v-29.6C311.8,184.2,315.1,189.6,315.1,195.9z
		 M280.2,195.9c0-6.2,3.3-11.7,8.2-14.8v29.6C283.4,207.6,280.2,202.1,280.2,195.9z M183.1,280.2c6.2,0,11.7,3.3,14.8,8.2h-29.6
		C171.4,283.4,176.8,280.2,183.1,280.2z M183.1,315.1c-6.2,0-11.7-3.3-14.8-8.2h29.6C194.8,311.8,189.3,315.1,183.1,315.1z
		 M395,274.4l20.6,14H395V274.4z M395,320.9v-14h20.6L395,320.9z"/>
</g>
</svg>
